<svg xmlns="http://www.w3.org/2000/svg" xmlns:cc="http://web.resource.org/cc/" xmlns:svg="http://www.w3.org/2000/svg" xmlns:xlink="http://www.w3.org/1999/xlink" id="svg2254" width="640" height="480"><defs id="defs3"><linearGradient id="linearGradient4733" x1="302.736" x2="311.274" y1="377.953" y2="390.783" gradientTransform="matrix(1.951900,0.000000,0.000000,1.841820,-206.4021,-329.7778)" gradientUnits="userSpaceOnUse" xlink:href="#linearGradient4554"/><linearGradient id="linearGradient4744" x1="401.934" x2="414.39" y1="376.137" y2="390.493" gradientTransform="scale(0.999946,1.000054)" gradientUnits="userSpaceOnUse" xlink:href="#linearGradient4738"/><linearGradient id="linearGradient4568"><stop id="stop4570" offset="0" style="stop-color:#e12b1c;stop-opacity:1"/><stop id="stop4572" offset="1" style="stop-color:#980b00;stop-opacity:1"/></linearGradient><linearGradient id="linearGradient4693" x1="314.565" x2="332.025" y1="369.98" y2="387.439" gradientUnits="userSpaceOnUse" xlink:href="#linearGradient4568"/><linearGradient id="linearGradient3711" x1="302.736" x2="311.274" y1="377.953" y2="390.783" gradientTransform="matrix(1.951900,0.000000,0.000000,1.841820,-428.7143,-277.3005)" gradientUnits="userSpaceOnUse" xlink:href="#linearGradient4554"/><linearGradient id="linearGradient3709" x1="314.565" x2="332.025" y1="369.98" y2="387.439" gradientUnits="userSpaceOnUse" xlink:href="#linearGradient4886"/><linearGradient id="linearGradient3695" x1="808.126" x2="832.683" y1="362.581" y2="400.04" gradientTransform="translate(-305.3221,52.47723)" gradientUnits="userSpaceOnUse" xlink:href="#linearGradient4554"/><linearGradient id="linearGradient4886"><stop id="stop4888" offset="0" style="stop-color:#1c97e1;stop-opacity:1"/><stop id="stop4890" offset="1" style="stop-color:#006798;stop-opacity:1"/></linearGradient><linearGradient id="linearGradient3691" x1="838.01" x2="909.216" y1="-320.497" y2="-321.473" gradientTransform="translate(-178.7883,253.0024)" gradientUnits="userSpaceOnUse" xlink:href="#linearGradient4886"/><linearGradient id="linearGradient4738"><stop id="stop4740" offset="0" style="stop-color:#fff;stop-opacity:.7265625"/><stop id="stop4742" offset="1" style="stop-color:#fff;stop-opacity:1"/></linearGradient><linearGradient id="linearGradient4554"><stop id="stop4556" offset="0" style="stop-color:#fff;stop-opacity:1"/><stop id="stop4558" offset="1" style="stop-color:#fff;stop-opacity:0"/></linearGradient><linearGradient id="linearGradient6127" x1="714.002" x2="745.218" y1="328.409" y2="359.151" gradientTransform="matrix(0.901725,0.000000,0.000000,1.108985,-143.0620,50.64598)" gradientUnits="userSpaceOnUse" xlink:href="#linearGradient4554"/><linearGradient id="linearGradient5028"><stop style="stop-color:#fffd26;stop-opacity:1" id="stop5030" offset="0"/><stop style="stop-color:#967f00;stop-opacity:1" id="stop5032" offset="1"/></linearGradient><linearGradient id="linearGradient6125" x1="621.354" x2="649.376" y1="387.405" y2="424.728" gradientTransform="matrix(1.061434,0.000000,0.000000,0.942122,-143.0620,50.64598)" gradientUnits="userSpaceOnUse" xlink:href="#linearGradient5028"/><linearGradient id="linearGradient2314" x1="786.646" x2="818.391" y1="302.44" y2="338.764" gradientTransform="matrix(0.645848,0.000000,0.000000,0.875833,18.07490,154.3767)" gradientUnits="userSpaceOnUse" xlink:href="#linearGradient4738"/><linearGradient id="linearGradient2316" x1="1313.43" x2="1333.007" y1="237.961" y2="258.769" gradientTransform="matrix(0.638597,0.000000,0.000000,1.565933,-305.3766,53.81816)" gradientUnits="userSpaceOnUse" xlink:href="#linearGradient4738"/><linearGradient id="linearGradient2318" x1="786.646" x2="818.391" y1="302.44" y2="338.764" gradientTransform="matrix(0.705519,0.000000,0.000000,0.956752,-378.2535,132.7828)" gradientUnits="userSpaceOnUse" xlink:href="#linearGradient4738"/><linearGradient id="linearGradient2322" x1="786.646" x2="818.391" y1="302.44" y2="338.764" gradientTransform="matrix(0.645848,0.000000,0.000000,0.875833,-151.4429,-50.61010)" gradientUnits="userSpaceOnUse" xlink:href="#linearGradient4738"/><linearGradient id="linearGradient2325" x1="714.002" x2="745.218" y1="328.409" y2="359.151" gradientTransform="matrix(0.901725,0.000000,0.000000,1.108985,-312.5798,-154.3408)" gradientUnits="userSpaceOnUse" xlink:href="#linearGradient4554"/><linearGradient id="linearGradient2328" x1="621.354" x2="649.376" y1="387.405" y2="424.728" gradientTransform="matrix(1.061434,0.000000,0.000000,0.942122,-312.5798,-154.3408)" gradientUnits="userSpaceOnUse" xlink:href="#linearGradient5028"/><linearGradient id="linearGradient2332" x1="808.126" x2="832.683" y1="362.581" y2="400.04" gradientTransform="translate(-399.0126,-162.2396)" gradientUnits="userSpaceOnUse" xlink:href="#linearGradient4554"/><linearGradient id="linearGradient2336" x1="1313.43" x2="1333.007" y1="237.961" y2="258.769" gradientTransform="matrix(0.638597,0.000000,0.000000,1.565933,-399.0671,-160.8986)" gradientUnits="userSpaceOnUse" xlink:href="#linearGradient4738"/><linearGradient id="linearGradient2339" x1="838.01" x2="909.216" y1="-320.497" y2="-321.473" gradientTransform="translate(-396.8652,167.4239)" gradientUnits="userSpaceOnUse" xlink:href="#linearGradient4886"/><linearGradient id="linearGradient2344" x1="786.646" x2="818.391" y1="302.44" y2="338.764" gradientTransform="matrix(0.705519,0.000000,0.000000,0.956752,-290.5796,-78.43960)" gradientUnits="userSpaceOnUse" xlink:href="#linearGradient4738"/><linearGradient id="linearGradient2347" x1="302.736" x2="311.274" y1="377.953" y2="390.783" gradientTransform="matrix(1.951900,0.000000,0.000000,1.841820,-341.0404,-488.5229)" gradientUnits="userSpaceOnUse" xlink:href="#linearGradient4554"/><linearGradient id="linearGradient2352" x1="302.736" x2="311.274" y1="377.953" y2="390.783" gradientTransform="matrix(1.951900,0.000000,0.000000,1.841820,-426.2173,-488.5229)" gradientUnits="userSpaceOnUse" xlink:href="#linearGradient4554"/><linearGradient id="linearGradient2355" x1="401.934" x2="414.39" y1="376.137" y2="390.493" gradientTransform="matrix(0.999946,0.000000,0.000000,1.000054,-219.8152,-158.7451)" gradientUnits="userSpaceOnUse" xlink:href="#linearGradient4738"/></defs><metadata id="metadata4"/><g id="layer1"><path id="path4531" d="M 339.53775 378.05789 A 13.966679 13.966679 0 1 1 311.60440,378.05789 A 13.966679 13.966679 0 1 1 339.53775 378.05789 z" transform="matrix(1.896061,0.000000,0.000000,1.896061,-426.2173,-488.5229)" style="overflow:visible;display:inline;visibility:visible;marker-end:none;marker-mid:none;marker-start:none;marker:none;stroke-opacity:1;stroke-dashoffset:0;stroke-miterlimit:4;stroke-linejoin:miter;stroke-linecap:butt;stroke-width:3.625;stroke:none;fill-rule:nonzero;fill-opacity:1;fill:#b4281c;color:#000"/><path id="path4533" d="M 339.53775 378.05789 A 13.966679 13.966679 0 1 1 311.60440,378.05789 A 13.966679 13.966679 0 1 1 339.53775 378.05789 z" transform="matrix(1.731185,0.000000,0.000000,1.731185,-372.5388,-426.1907)" style="overflow:visible;display:inline;visibility:visible;marker-end:none;marker-mid:none;marker-start:none;marker:none;stroke-opacity:1;stroke-dashoffset:0;stroke-miterlimit:4;stroke-linejoin:miter;stroke-linecap:butt;stroke-width:.32492188;stroke:#fff;fill-rule:nonzero;fill-opacity:1;fill:url(#linearGradient4693);color:#000"/><path id="rect4574" d="M 177.62000,219.88529 C 177.39715,220.10811 177.43907,220.45852 177.66188,220.68133 L 185.24531,228.26476 L 177.62000,235.89009 C 177.39715,236.11292 177.39715,236.50521 177.62000,236.72804 L 182.64769,241.75573 C 182.87051,241.97857 183.22092,241.93665 183.44373,241.71384 L 191.06906,234.08851 L 198.69439,241.71384 C 198.91722,241.93667 199.26761,241.97853 199.49043,241.75573 L 204.51812,236.72804 C 204.74097,236.50521 204.74097,236.11292 204.51812,235.89009 L 196.89281,228.26476 L 204.51812,220.63943 C 204.74097,220.41660 204.74093,220.10811 204.51812,219.88529 L 199.49043,214.85760 C 199.26761,214.63475 198.91720,214.59285 198.69439,214.81569 L 191.06906,222.44103 L 183.48563,214.85760 C 183.26281,214.63475 182.87051,214.63475 182.64769,214.85760 L 177.62000,219.88529 z" style="color:#000;fill:url(#linearGradient2355);fill-opacity:1;fill-rule:nonzero;stroke:none;stroke-width:.61607176;stroke-linecap:butt;stroke-linejoin:miter;stroke-miterlimit:4;stroke-dashoffset:0;stroke-opacity:1;marker:none;marker-start:none;marker-mid:none;marker-end:none;visibility:visible;display:inline;overflow:visible"/><path id="path4537" d="M 191.06906,204.13188 C 177.72231,204.13188 166.89426,214.95991 166.89428,228.30666 C 166.89428,234.71923 169.51122,240.44957 173.58975,244.77869 C 175.70860,227.27820 190.47927,213.67144 208.54837,213.67144 C 209.03558,213.67144 209.48798,213.77040 209.97042,213.78994 C 205.54899,208.03925 198.87835,204.13188 191.06906,204.13188 z" style="color:#000;fill:url(#linearGradient2352);fill-opacity:1;fill-rule:nonzero;stroke:none;stroke-width:.61607176;stroke-linecap:butt;stroke-linejoin:miter;stroke-miterlimit:4;stroke-dashoffset:0;stroke-opacity:1;marker:none;marker-start:none;marker-mid:none;marker-end:none;visibility:visible;display:inline;overflow:visible"/><path id="path4850" d="M 339.53775 378.05789 A 13.966679 13.966679 0 1 1 311.60440,378.05789 A 13.966679 13.966679 0 1 1 339.53775 378.05789 z" transform="matrix(1.896061,0.000000,0.000000,1.896061,-341.0404,-488.5229)" style="overflow:visible;display:inline;visibility:visible;marker-end:none;marker-mid:none;marker-start:none;marker:none;stroke-opacity:1;stroke-dashoffset:0;stroke-miterlimit:4;stroke-linejoin:miter;stroke-linecap:butt;stroke-width:3.625;stroke:none;fill-rule:nonzero;fill-opacity:1;fill:#166496;color:#000"/><path id="path4852" d="M 339.53775 378.05789 A 13.966679 13.966679 0 1 1 311.60440,378.05789 A 13.966679 13.966679 0 1 1 339.53775 378.05789 z" transform="matrix(1.731185,0.000000,0.000000,1.731185,-287.3619,-426.1907)" style="overflow:visible;display:inline;visibility:visible;marker-end:none;marker-mid:none;marker-start:none;marker:none;stroke-opacity:1;stroke-dashoffset:0;stroke-miterlimit:4;stroke-linejoin:miter;stroke-linecap:butt;stroke-width:.68594635;stroke:#fff;fill-rule:nonzero;fill-opacity:1;fill:url(#linearGradient3709);color:#000"/><path id="path4854" d="M 276.24601,204.13173 C 262.89926,204.13173 252.07121,214.95976 252.07123,228.30651 C 252.07123,234.71908 254.68817,240.44942 258.76670,244.77854 C 260.88555,227.27805 275.65622,213.67129 293.72532,213.67129 C 294.21253,213.67129 294.66493,213.77025 295.14737,213.78979 C 290.72594,208.03910 284.05530,204.13173 276.24601,204.13173 z" style="color:#000;fill:url(#linearGradient2347);fill-opacity:1;fill-rule:nonzero;stroke:none;stroke-width:.61607176;stroke-linecap:butt;stroke-linejoin:miter;stroke-miterlimit:4;stroke-dashoffset:0;stroke-opacity:1;marker:none;marker-start:none;marker-mid:none;marker-end:none;visibility:visible;display:inline;overflow:visible"/><path id="text4864" d="M 274.29085,240.84024 C 272.39661,240.84024 270.91194,242.32491 270.91194,244.11675 C 270.91194,245.95979 272.39661,247.44446 274.23965,247.44446 C 276.03149,247.44446 277.51616,245.95979 277.51616,244.11675 C 277.51616,242.32491 276.03149,240.84024 274.29085,240.84024 M 275.41715,237.87090 C 275.36595,233.26331 276.44106,231.52266 279.92235,230.19158 L 281.61180,229.57723 C 283.96679,228.75810 285.50266,227.73419 286.57776,226.45431 C 287.80645,224.81605 288.52319,222.76823 288.52319,220.77161 C 288.52319,217.75107 286.98733,214.93532 284.47875,213.45065 C 282.17495,212.06837 279.15441,211.24924 276.23627,211.24924 C 272.85738,211.24924 269.17129,212.32435 267.12348,213.91141 C 264.92207,215.65205 263.59099,217.90466 263.59099,219.95248 C 263.59099,222.10269 264.92207,223.68975 266.76511,223.68975 C 268.24978,223.68975 269.52967,222.51225 269.52967,221.23237 C 269.52967,220.72041 269.42727,220.41324 268.91532,219.33813 C 268.55695,218.67259 268.45456,218.26303 268.45456,217.69988 C 268.45456,215.24249 271.67988,213.29706 275.72432,213.29706 C 280.38310,213.29706 282.99408,215.85684 282.99408,220.31085 C 282.99408,223.12660 281.76539,225.43040 279.46159,227.01746 L 276.54345,229.01408 C 273.77889,230.85712 273.01096,232.34179 273.01096,235.61830 C 273.01096,236.28384 273.06215,236.84699 273.11335,237.87090 L 275.41715,237.87090" style="font-size:51.195492;font-style:normal;font-variant:normal;font-weight:400;font-stretch:normal;color:#000;fill:url(#linearGradient2344);fill-opacity:1;fill-rule:nonzero;stroke:none;stroke-width:1px;stroke-linecap:butt;stroke-linejoin:miter;stroke-miterlimit:4;stroke-dashoffset:0;stroke-opacity:1;marker:none;marker-start:none;marker-mid:none;marker-end:none;visibility:visible;display:inline;overflow:visible;font-family:URW Bookman L;letter-spacing:normal;text-anchor:start;writing-mode:lr-tb"/><rect id="rect5057" width="48.18" height="48.18" x="453.146" y="-178.464" rx="6" ry="6" transform="matrix(0.707107,0.707107,-0.707107,0.707107,0.000000,0.000000)" style="color:#000;fill:#166496;fill-opacity:1;fill-rule:nonzero;stroke:none;stroke-width:.68594635;stroke-linecap:butt;stroke-linejoin:miter;stroke-miterlimit:4;stroke-dashoffset:0;stroke-opacity:1;marker:none;marker-start:none;marker-mid:none;marker-end:none;visibility:visible;display:inline;overflow:visible"/><rect id="rect5059" width="42.857" height="42.857" x="455.808" y="-175.803" rx="3" ry="3" transform="matrix(0.707107,0.707107,-0.707107,0.707107,0.000000,0.000000)" style="color:#000;fill:url(#linearGradient2339);fill-opacity:1;fill-rule:nonzero;stroke:#fff;stroke-width:1.1875011;stroke-linecap:butt;stroke-linejoin:miter;stroke-miterlimit:4;stroke-dashoffset:0;stroke-opacity:1;marker:none;marker-start:none;marker-mid:none;marker-end:none;visibility:visible;display:inline;overflow:visible"/><path id="text5067" d="M 449.72958,220.52482 L 448.11320,220.52482 C 445.21324,221.04776 443.64440,221.28546 441.12475,221.47563 L 441.12475,222.90184 L 442.07556,222.99692 C 444.54766,223.23462 445.21323,224.09035 445.21323,226.94278 L 445.21323,238.11479 C 445.21323,240.72951 444.35750,241.82294 442.26572,242.06065 L 441.07721,242.15573 L 441.07721,243.58194 L 453.81806,243.58194 L 453.81806,242.15573 L 452.67708,242.06065 C 450.53777,241.82294 449.72958,240.72951 449.72958,238.11479 L 449.72958,220.52482 M 447.54272,212.49048 C 445.92634,212.49048 444.64275,213.77407 444.64275,215.34291 C 444.64275,216.95928 445.92634,218.24288 447.49517,218.24288 C 449.11155,218.24288 450.39514,216.95928 450.39514,215.39045 C 450.39514,213.82161 449.11155,212.49048 447.54272,212.49048" style="font-size:47.540459;font-style:normal;font-variant:normal;font-weight:400;font-stretch:normal;color:#000;fill:url(#linearGradient2336);fill-opacity:1;fill-rule:nonzero;stroke:none;stroke-width:1px;stroke-linecap:butt;stroke-linejoin:miter;stroke-miterlimit:4;stroke-dashoffset:0;stroke-opacity:1;marker:none;marker-start:none;marker-mid:none;marker-end:none;visibility:visible;display:inline;overflow:visible;font-family:URW Bookman L;letter-spacing:normal;text-anchor:start;writing-mode:lr-tb"/><path id="rect5098" d="M 446.61241,199.22918 C 445.84555,199.22918 445.07503,199.51658 444.48741,200.10418 L 418.42491,226.16668 C 417.24970,227.34189 417.24970,229.24146 418.42491,230.41668 L 435.08116,247.07293 C 435.12379,229.70568 446.82290,215.50799 461.89366,213.26043 L 448.73741,200.10418 C 448.14980,199.51657 447.37927,199.22918 446.61241,199.22918 z" style="color:#000;fill:url(#linearGradient2332);fill-opacity:1;fill-rule:nonzero;stroke:none;stroke-width:1.1874996;stroke-linecap:butt;stroke-linejoin:miter;stroke-miterlimit:4;stroke-dashoffset:0;stroke-opacity:1;marker:none;marker-start:none;marker-mid:none;marker-end:none;visibility:visible;display:inline;overflow:visible"/><path id="path5333" d="M 356.37016,207.62622 L 335.43266,243.93872 C 332.67911,248.71429 335.40639,252.62622 340.55766,252.62622 L 382.46391,252.62622 C 387.57327,252.62622 389.99594,248.05296 387.62016,243.93872 L 366.65141,207.62622 C 363.84849,202.77229 359.19388,202.72897 356.37016,207.62622 z" style="color:#000;fill:#a6a700;fill-opacity:1;fill-rule:nonzero;stroke:none;stroke-width:.68594635;stroke-linecap:butt;stroke-linejoin:miter;stroke-miterlimit:4;stroke-dashoffset:0;stroke-opacity:1;marker:none;marker-start:none;marker-mid:none;marker-end:none;visibility:visible;display:inline;overflow:visible"/><path id="path5335" d="M 356.73452,209.80170 L 337.60384,242.98059 C 334.52945,248.31260 336.27399,250.91840 342.28658,250.91840 L 380.57650,250.91840 C 386.28961,250.91840 388.48759,248.52182 385.28779,242.98059 L 366.12854,209.80170 C 363.25211,204.82046 359.64699,204.75051 356.73452,209.80170 z" style="color:#000;fill:url(#linearGradient2328);fill-opacity:1;fill-rule:nonzero;stroke:#fff;stroke-width:.68594605;stroke-linecap:butt;stroke-linejoin:miter;stroke-miterlimit:4;stroke-dashoffset:0;stroke-opacity:1;marker:none;marker-start:none;marker-mid:none;marker-end:none;visibility:visible;display:inline;overflow:visible"/><path id="path5337" d="M 361.45144,206.03418 C 359.82654,206.02544 358.18892,207.28983 356.73269,209.81543 L 337.60769,242.97168 C 334.53330,248.30369 336.28260,250.90918 342.29519,250.90918 L 345.26394,250.90918 C 345.26254,250.79200 345.23269,250.68293 345.23269,250.56543 C 345.23268,235.25909 357.22486,222.76915 372.60769,221.00293 L 366.13894,209.81543 C 364.70071,207.32481 363.07634,206.04292 361.45144,206.03418 z" style="color:#000;fill:url(#linearGradient2325);fill-opacity:1;fill-rule:nonzero;stroke:none;stroke-width:.68594605;stroke-linecap:butt;stroke-linejoin:miter;stroke-miterlimit:4;stroke-dashoffset:0;stroke-opacity:1;marker:none;marker-start:none;marker-mid:none;marker-end:none;visibility:visible;display:inline;overflow:visible"/><path id="text5339" d="M 361.34058,241.66582 C 359.65343,241.66582 358.29432,243.02492 358.29432,244.66521 C 358.29432,246.35237 359.65343,247.71147 361.34058,247.71147 C 362.98087,247.71147 364.33998,246.35237 364.33998,244.66521 C 364.33998,243.02492 362.98087,241.66582 361.34058,241.66582 M 362.09043,238.94762 L 362.09043,237.49479 C 362.09043,235.71390 362.46536,232.24585 362.88715,230.04317 L 364.19938,223.66946 C 364.62117,221.51365 364.85550,219.87335 364.85550,218.88918 C 364.85550,216.17098 363.59013,214.57755 361.48118,214.57755 C 359.23164,214.57755 358.10686,216.12412 358.10686,219.31097 C 358.10686,220.34201 358.10686,220.34201 358.66925,223.52887 L 359.70029,229.66825 C 360.07521,231.68346 360.40327,235.66704 360.40327,237.44792 L 360.40327,238.94762 L 362.09043,238.94762" style="font-size:46.865513;font-style:normal;font-variant:normal;font-weight:400;font-stretch:normal;color:#000;fill:url(#linearGradient2322);fill-opacity:1;fill-rule:nonzero;stroke:none;stroke-width:1px;stroke-linecap:butt;stroke-linejoin:miter;stroke-miterlimit:4;stroke-dashoffset:0;stroke-opacity:1;marker:none;marker-start:none;marker-mid:none;marker-end:none;visibility:visible;display:inline;overflow:visible;font-family:URW Bookman L;letter-spacing:normal;text-anchor:start;writing-mode:lr-tb"/></g></svg>